<svg width="96" height="96" xmlns="http://www.w3.org/2000/svg" xmlns:xlink="http://www.w3.org/1999/xlink" xml:space="preserve" overflow="hidden"><g transform="translate(-464 -330)"><path d="M552 335 532.2 335C530.543 335 529.2 336.343 529.2 338 529.2 339.657 530.543 341 532.2 341L544.76 341 475 410.76 475 398.2C475 396.543 473.657 395.2 472 395.2 470.343 395.2 469 396.543 469 398.2L469 418C469 419.657 470.343 421 472 421L491.8 421C493.457 421 494.8 419.657 494.8 418 494.8 416.343 493.457 415 491.8 415L479.24 415 549 345.24 549 357.8C549 359.457 550.343 360.8 552 360.8 553.657 360.8 555 359.457 555 357.8L555 338C555 336.343 553.657 335 552 335Z" fill="#FFF500"/></g></svg>