<svg width="96" height="96" xmlns="http://www.w3.org/2000/svg" xmlns:xlink="http://www.w3.org/1999/xlink" xml:space="preserve" overflow="hidden"><g transform="translate(-740 -330)"><path d="M830.1 340.14C831.229 338.928 831.162 337.03 829.95 335.9 828.798 334.826 827.012 334.826 825.86 335.9L795 366.76 795 354.2C795 352.543 793.657 351.2 792 351.2 790.343 351.2 789 352.543 789 354.2L789 374C789 375.657 790.343 377 792 377L811.8 377C812.595 376.999 813.358 376.683 813.92 376.12 814.54 375.579 814.927 374.819 815 374 814.909 372.304 813.498 370.982 811.8 371L799.24 371Z" fill="#FFF500"/><path d="M745.88 415.88C744.75 417.092 744.818 418.991 746.03 420.12 747.182 421.194 748.968 421.194 750.12 420.12L781 389.26 781 401.82C781 403.477 782.343 404.82 784 404.82 785.657 404.82 787 403.477 787 401.82L787 382C787 380.343 785.657 379 784 379L764.18 379C763.382 379.006 762.619 379.33 762.06 379.9 760.825 380.902 760.636 382.716 761.639 383.951 762.253 384.709 763.21 385.103 764.18 385L776.74 385Z" fill="#FFF500"/></g></svg>