<svg width="96" height="96" xmlns="http://www.w3.org/2000/svg" xmlns:xlink="http://www.w3.org/1999/xlink" xml:space="preserve" overflow="hidden"><g transform="translate(-307 -52)"><path d="M327.9 109.6 347.1 90.4 336.4 90.4C339.9 83.6 347 78.9 355.2 78.9 360.5 78.9 365.4 80.9 369.1 84.2L388.6 84.2C382.7 71.6 369.9 63 355.2 63 338.1 63 323.7 74.6 319.5 90.4L308.7 90.4 327.9 109.6Z"/><path d="M401.6 109.6 382.4 90.4 363.2 109.6 374 109.6C370.5 116.4 363.4 121.1 355.2 121.1 349.9 121.1 345 119.1 341.3 115.8L321.7 115.8C327.7 128.4 340.4 137 355.2 137 372.3 137 386.7 125.4 390.9 109.6L401.6 109.6Z"/></g></svg>